<svg width="120" height="120" viewBox="0 0 120 120" fill="none" xmlns="http://www.w3.org/2000/svg">
<circle cx="60" cy="60" r="60" fill="#495670"/>
<path d="M65.989 10.4141C76.0315 11.7454 85.4751 15.8445 92.3815 21.8004L93.9672 23.2018L92.3815 24.7784C91.5358 25.6542 90.6901 26.39 90.5139 26.39C90.373 26.39 88.6816 25.3039 86.8141 23.9375C77.1944 17.0707 67.1871 14.1979 56.2636 15.1788C44.3887 16.3 34.8747 20.8895 26.9816 29.2979C20.8504 35.8844 16.8686 43.7672 15.3534 52.4559C14.5077 57.2907 14.8249 66.3997 16.0582 70.9893C19.8638 85.5638 31.0339 97.6508 44.9877 102.38C49.9209 104.027 53.0218 104.588 58.554 104.763C66.8699 105.043 73.1069 103.677 80.5066 99.893C89.2454 95.4086 96.0461 88.6118 100.31 80.0633C103.164 74.2826 104.714 68.9222 104.714 64.7181V62.4758H82.198H59.6463L60.7387 60.0234L61.831 57.571H85.8979H110V61.3898C110 70.4287 107.005 79.8881 101.473 88.0863C98.7594 92.1854 92.2053 98.7369 88.3293 101.294C69.3013 113.837 45.3754 112.751 28.1092 98.5267C18.3838 90.5037 11.9002 78.6269 10.2793 65.8041C9.75075 61.7401 9.99741 54.1025 10.8079 50.2137C14.6839 31.0496 29.272 16.0897 48.5114 11.4651C54.9951 9.92361 59.9282 9.64333 65.989 10.4141ZM61.7958 23.4821C64.5443 29.2979 65.7423 32.1707 69.4775 41.7002L72.9307 50.564H70.006H67.1166L65.848 47.3058C61.831 36.9004 60.2101 33.0116 59.9635 33.2918C59.8225 33.432 57.2855 39.8083 54.3256 47.4109C51.3656 55.0134 47.1372 65.8041 44.9525 71.4097L40.9707 81.5698L38.1518 81.6749L35.2976 81.78L36.3194 79.0473C37.3766 76.1744 46.7496 51.8953 52.4228 37.2508C55.735 28.7723 59.5759 19.7334 59.8578 19.7334C59.9282 19.7334 60.8092 21.415 61.7958 23.4821ZM81.6342 73.4067C82.5151 75.7891 83.6427 78.6269 84.1008 79.713L84.9465 81.745H82.0571H79.1324L78.6743 80.5888C77.6524 77.9612 74.4106 69.4478 74.4106 69.2726C74.4106 69.2025 75.6439 69.1324 77.1944 69.1324H79.9781L81.6342 73.4067Z" fill="#64FFDA"/>
</svg>
