<svg width="100" height="100" viewBox="0 0 284 286" fill="none" xmlns="http://www.w3.org/2000/svg">
<path d="M158.893 1.18198C187.393 4.98198 214.193 16.682 233.793 33.682L238.293 37.682L233.793 42.182C231.393 44.682 228.993 46.782 228.493 46.782C228.093 46.782 223.293 43.682 217.993 39.782C190.693 20.182 162.293 11.982 131.293 14.782C97.5926 17.982 70.5926 31.082 48.1926 55.082C30.7927 73.882 19.4926 96.382 15.1926 121.182C12.7926 134.982 13.6926 160.982 17.1926 174.082C27.9927 215.682 59.6926 250.182 99.2926 263.682C113.293 268.382 122.093 269.982 137.793 270.482C161.393 271.282 179.093 267.382 200.093 256.582C224.893 243.782 244.193 224.382 256.293 199.982C264.393 183.482 268.793 168.182 268.793 156.182V149.782H204.893H140.893L143.993 142.782L147.093 135.782H215.393H283.793V146.682C283.793 172.482 275.293 199.482 259.593 222.882C251.893 234.582 233.293 253.282 222.293 260.582C168.293 296.382 100.393 293.282 51.3926 252.682C23.7926 229.782 5.39265 195.882 0.792648 159.282C-0.707352 147.682 -0.00735164 125.882 2.29265 114.782C13.2926 60.082 54.6926 17.382 109.293 4.18198C127.693 -0.218024 141.693 -1.01802 158.893 1.18198ZM146.993 38.482C154.793 55.082 158.193 63.282 168.793 90.482L178.593 115.782H170.293H162.093L158.493 106.482C147.093 76.782 142.493 65.682 141.793 66.482C141.393 66.882 134.193 85.082 125.793 106.782C117.393 128.482 105.393 159.282 99.1926 175.282L87.8926 204.282L79.8926 204.582L71.7926 204.882L74.6926 197.082C77.6926 188.882 104.293 119.582 120.393 77.782C129.793 53.582 140.693 27.782 141.493 27.782C141.693 27.782 144.193 32.582 146.993 38.482ZM203.293 180.982C205.793 187.782 208.993 195.882 210.293 198.982L212.693 204.782H204.493H196.193L194.893 201.482C191.993 193.982 182.793 169.682 182.793 169.182C182.793 168.982 186.293 168.782 190.693 168.782H198.593L203.293 180.982Z" fill="#64FFDA"/>
</svg>

