<svg width="112" height="24" viewBox="0 0 112 24" fill="none" xmlns="http://www.w3.org/2000/svg">
<path d="M8.544 1.08H10.128L12.528 7.128L14.952 1.08H16.56L13.584 8.352L16.848 16.056L23.016 0.959999H24.84L17.616 18H16.128L12.552 9.576L8.952 18H7.488L0.288 0.959999H2.088L8.28 16.056L11.52 8.352L8.544 1.08ZM30.6844 18.24C29.7884 18.24 28.9564 18.072 28.1884 17.736C27.4204 17.384 26.7564 16.912 26.1964 16.32C25.6364 15.712 25.1964 15.016 24.8764 14.232C24.5724 13.448 24.4204 12.608 24.4204 11.712C24.4204 10.544 24.6844 9.472 25.2124 8.496C25.7564 7.52 26.5004 6.744 27.4444 6.168C28.3884 5.576 29.4604 5.28 30.6604 5.28C31.8924 5.28 32.9644 5.576 33.8764 6.168C34.8044 6.76 35.5324 7.544 36.0604 8.52C36.5884 9.48 36.8524 10.536 36.8524 11.688C36.8524 11.816 36.8524 11.944 36.8524 12.072C36.8524 12.184 36.8444 12.272 36.8284 12.336H26.1244C26.2044 13.232 26.4524 14.032 26.8684 14.736C27.3004 15.424 27.8524 15.976 28.5244 16.392C29.2124 16.792 29.9564 16.992 30.7564 16.992C31.5724 16.992 32.3404 16.784 33.0604 16.368C33.7964 15.952 34.3084 15.408 34.5964 14.736L36.0124 15.12C35.7564 15.712 35.3644 16.248 34.8364 16.728C34.3084 17.208 33.6844 17.584 32.9644 17.856C32.2604 18.112 31.5004 18.24 30.6844 18.24ZM26.0764 11.16H35.3164C35.2524 10.248 35.0044 9.448 34.5724 8.76C34.1564 8.072 33.6044 7.536 32.9164 7.152C32.2444 6.752 31.5004 6.552 30.6844 6.552C29.8684 6.552 29.1244 6.752 28.4524 7.152C27.7804 7.536 27.2284 8.08 26.7964 8.784C26.3804 9.472 26.1404 10.264 26.0764 11.16ZM45.4903 18.24C44.5143 18.24 43.6103 17.992 42.7783 17.496C41.9463 16.984 41.2983 16.344 40.8343 15.576V18H39.3703V0.48H41.0023V8.112C41.5623 7.264 42.2343 6.584 43.0183 6.072C43.8023 5.544 44.7143 5.28 45.7543 5.28C46.6343 5.28 47.4183 5.464 48.1063 5.832C48.8103 6.2 49.4103 6.696 49.9063 7.32C50.4023 7.928 50.7783 8.624 51.0343 9.408C51.2903 10.176 51.4183 10.968 51.4183 11.784C51.4183 12.664 51.2663 13.488 50.9623 14.256C50.6743 15.024 50.2583 15.712 49.7143 16.32C49.1703 16.912 48.5383 17.384 47.8183 17.736C47.1143 18.072 46.3383 18.24 45.4903 18.24ZM45.1063 16.8C45.7783 16.8 46.4023 16.664 46.9783 16.392C47.5543 16.12 48.0503 15.744 48.4663 15.264C48.8823 14.784 49.2023 14.248 49.4263 13.656C49.6503 13.048 49.7623 12.424 49.7623 11.784C49.7623 10.904 49.5703 10.08 49.1863 9.312C48.8183 8.528 48.2983 7.904 47.6263 7.44C46.9703 6.96 46.1943 6.72 45.2983 6.72C44.6583 6.72 44.0583 6.864 43.4983 7.152C42.9543 7.44 42.4663 7.824 42.0343 8.304C41.6183 8.768 41.2743 9.28 41.0023 9.84V13.728C41.0663 14.16 41.2343 14.568 41.5063 14.952C41.7783 15.32 42.1143 15.64 42.5143 15.912C42.9303 16.184 43.3623 16.4 43.8103 16.56C44.2583 16.72 44.6903 16.8 45.1063 16.8ZM67.1473 13.608C67.1473 14.456 66.9313 15.216 66.4993 15.888C66.0673 16.544 65.4833 17.064 64.7473 17.448C64.0273 17.816 63.2353 18 62.3713 18H54.3313V0.959999H62.5393C63.3393 0.959999 64.0273 1.176 64.6033 1.608C65.1953 2.024 65.6433 2.568 65.9473 3.24C66.2673 3.896 66.4273 4.584 66.4273 5.304C66.4273 6.152 66.2113 6.936 65.7793 7.656C65.3473 8.376 64.7473 8.912 63.9793 9.264C64.9553 9.552 65.7233 10.088 66.2833 10.872C66.8593 11.656 67.1473 12.568 67.1473 13.608ZM65.4673 13.32C65.4673 12.744 65.3393 12.216 65.0833 11.736C64.8273 11.24 64.4753 10.84 64.0273 10.536C63.5953 10.232 63.0993 10.08 62.5393 10.08H56.0113V16.536H62.3713C62.9473 16.536 63.4673 16.384 63.9313 16.08C64.3953 15.776 64.7633 15.384 65.0353 14.904C65.3233 14.408 65.4673 13.88 65.4673 13.32ZM56.0113 2.424V8.712H61.8673C62.4273 8.712 62.9233 8.568 63.3553 8.28C63.7873 7.976 64.1313 7.584 64.3873 7.104C64.6433 6.624 64.7713 6.112 64.7713 5.568C64.7713 4.992 64.6513 4.472 64.4113 4.008C64.1713 3.528 63.8433 3.144 63.4273 2.856C63.0113 2.568 62.5393 2.424 62.0113 2.424H56.0113ZM70.5591 21.84C70.7831 21.856 70.9991 21.864 71.2071 21.864C71.4151 21.88 71.5671 21.872 71.6631 21.84C71.8551 21.808 72.0391 21.696 72.2151 21.504C72.3911 21.312 72.5991 20.944 72.8391 20.4C73.0791 19.856 73.4151 19.056 73.8471 18L68.3991 5.496H70.1271L74.7111 16.32L78.9351 5.496H80.5671L74.0871 21.624C73.9751 21.928 73.8071 22.208 73.5831 22.464C73.3591 22.736 73.0791 22.944 72.7431 23.088C72.4231 23.248 72.0231 23.336 71.5431 23.352C71.3991 23.368 71.2471 23.368 71.0871 23.352C70.9431 23.352 70.7671 23.336 70.5591 23.304V21.84ZM87.666 0.959999H89.082L96.162 18H94.386L92.178 12.672H84.522L82.338 18H80.538L87.666 0.959999ZM91.794 11.352L88.362 2.928L84.882 11.352H91.794ZM104.812 18.12C103.676 18.12 102.62 17.88 101.644 17.4C100.668 16.904 99.8199 16.24 99.0999 15.408C98.3799 14.576 97.8199 13.648 97.4199 12.624C97.0359 11.6 96.8439 10.544 96.8439 9.456C96.8439 8.304 97.0359 7.216 97.4199 6.192C97.8199 5.152 98.3719 4.232 99.0759 3.432C99.7799 2.632 100.612 2 101.572 1.536C102.532 1.072 103.58 0.839999 104.716 0.839999C106.396 0.839999 107.764 1.184 108.82 1.872C109.876 2.56 110.676 3.456 111.22 4.56L109.924 5.424C109.38 4.368 108.652 3.592 107.74 3.096C106.828 2.6 105.812 2.352 104.692 2.352C103.748 2.352 102.892 2.552 102.124 2.952C101.372 3.352 100.724 3.888 100.18 4.56C99.6359 5.232 99.2199 5.992 98.9319 6.84C98.6599 7.688 98.5239 8.568 98.5239 9.48C98.5239 10.44 98.6839 11.352 99.0039 12.216C99.3239 13.064 99.7799 13.824 100.372 14.496C100.964 15.152 101.644 15.672 102.412 16.056C103.196 16.424 104.036 16.608 104.932 16.608C105.972 16.608 106.956 16.352 107.884 15.84C108.812 15.312 109.7 14.504 110.548 13.416V15.192C108.932 17.144 107.02 18.12 104.812 18.12ZM110.284 10.92H106.492V9.624H111.7V18H110.284V10.92Z" fill="#8892B0"/>
</svg>
